<svg width="1726" height="854" viewBox="0 0 1726 854" fill="none" xmlns="http://www.w3.org/2000/svg">
<g clip-path="url(#clip0_410_2)">
<rect width="1728" height="854" fill="url(#paint0_linear_410_2)"/>
<path d="M1052 650.5L978 732.5L1363.5 915L1458.5 853.5C1458.5 853.5 1487.89 791.417 1497 757C1515.77 686.105 1541.6 601.4 1528 563C1514.4 524.6 1379 443.667 1336.5 432C1306.67 444.333 1238.9 473.9 1206.5 493.5C1174.1 513.1 1163 579.333 1161.5 610L1052 650.5Z" fill="url(#paint1_linear_410_2)"/>
<path d="M1284 621.5L1324 649.5L1358 673L1377 663V621.5L1392.5 580L1369 538.5H1324L1275 572L1284 621.5Z" fill="url(#paint2_linear_410_2)"/>
<path d="M1282.93 618.615L1315.95 641.931L1344.02 661.5L1359.7 653.173V618.615L1372.5 584.058L1353.1 549.5H1315.95L1275.5 577.396L1282.93 618.615Z" fill="url(#paint3_linear_410_2)"/>
<path d="M1442 604.5L1473.5 580L1498 620.5V659.5L1480 686.5L1450 694.5L1442 670.5L1450 641.5L1442 604.5Z" fill="url(#paint4_linear_410_2)"/>
<path d="M1442.5 613.832L1464.44 596.5L1481.5 625.151V652.74L1468.96 671.841L1448.07 677.5L1442.5 660.522L1448.07 640.007L1442.5 613.832Z" fill="url(#paint5_linear_410_2)"/>
<path d="M1362.5 512.5L1325.5 506L1281.5 539L1268.5 499.5L1238 483L1341.5 434L1411.5 470L1476.5 512.5L1518 551L1482.5 564L1456.5 578L1427 598L1405 591L1397.5 564L1362.5 512.5Z" fill="url(#paint6_linear_410_2)"/>
<path d="M1261 621L1251.5 578H1268.5L1274.5 615.5L1297.5 637.5L1292 646.5L1261 621Z" fill="url(#paint7_linear_410_2)"/>
<path d="M1385.5 622L1396 599.5V629.5L1412 666.5L1385.5 660V622Z" fill="url(#paint8_linear_410_2)"/>
<path d="M606.5 165C395.7 176.2 232 296.333 176.5 355C180.441 349.87 184.465 344.871 188.567 340C199.712 325.833 204.874 306.681 219.5 283C240.5 249 251.5 239.5 280 233C288.5 201 312.5 173 337 165C361.5 157 383 158 412.5 165C419 147.5 436.737 139.903 456.5 140C476.093 140.096 492 154.5 500 165C524.5 157 556.5 139.5 606.5 165Z" fill="url(#paint9_linear_410_2)"/>
<path d="M1156.04 664.033L1028.08 740.557L1172.95 834.927L1439.6 861.828L1425.31 797.394L1313.47 833.467L1286.48 649.444L1182.33 706.346L1156.04 664.033Z" fill="#CEE0E9"/>
<path d="M1275.86 708.657C1268.08 707.081 1258.94 697.38 1258.94 697.38L1284.28 659.486L1292.38 658.522L1289.68 645.603L1276.95 647.338L1278.3 655.63L1253.19 693.541C1253.19 693.541 1240.96 689.135 1236.87 682.664C1234.53 678.962 1239.57 673.827 1236.87 675.491C1218.33 686.938 1280.48 728.051 1283.3 706.443C1283.71 703.24 1281.58 709.815 1275.86 708.657Z" fill="#726355"/>
<path d="M1197.51 807.9C1193.43 814.006 1185.16 815.644 1179.06 811.557L-nan -nanL-nan -nanL1179.06 811.557C1172.95 807.47 1171.31 799.206 1175.4 793.099L1241.36 694.544L1263.47 709.344L1197.51 807.9Z" fill="white"/>
<path d="M1196.36 797.843C1194.28 800.941 1190.09 801.771 1186.99 799.698L-nan -nanL-nan -nanL1186.99 799.698C1183.9 797.625 1183.07 793.433 1185.14 790.336L1245.31 700.434L1256.52 707.941L1196.36 797.843Z" fill="#D2B06E"/>
<path fill-rule="evenodd" clip-rule="evenodd" d="M1248.56 706.671L1194.02 788.158C1193.78 788.512 1193.88 788.991 1194.23 789.228C1194.59 789.465 1195.07 789.37 1195.3 789.016L1249.84 707.529L1248.56 706.671ZM1192.3 792.113C1194.25 793.416 1196.88 792.894 1198.19 790.947L1254.65 706.575L1247.6 701.856L1191.14 786.228C1189.83 788.175 1190.35 790.81 1192.3 792.113Z" fill="#907D56"/>
<path d="M682 702.5V765.5L742.5 761L723.5 702.5H682Z" fill="#D9D1D1"/>
<path d="M756 702.5V739L795 744L796 702.5L777 678.5L756 702.5Z" fill="#D9D1D1"/>
<path d="M618.5 625L644.5 749L536.5 774.5L549 712.5L598 702.5L582 625H618.5Z" fill="#D9D1D1"/>
<path d="M644.5 727L648.5 747.5L675 743V727H664.5L657 717.5L652.5 727H644.5Z" fill="#ECECEC"/>
<path d="M733 717.5L737.5 737H748.5V717.5L737.5 701.5L733 717.5Z" fill="#ECECEC"/>
<path d="M802.5 713V732.5L824.5 737V717.5L802.5 713Z" fill="#ECECEC"/>
<path d="M1729 1198.5C1729 1073.72 1637.92 954.042 1475.79 865.806C1313.67 777.57 1093.78 728 864.5 728C635.22 728 415.331 777.57 253.206 865.806C91.081 954.042 3.46203e-05 1073.72 0 1198.5L864.5 1198.5H1729Z" fill="#B5C299"/>
<path d="M845 754L892.5 749.5H927.5H958.5L944 732.5L897.5 736L876 732.5L835 744L845 754Z" fill="#9DA982"/>
<path d="M429.5 837C409.1 841.8 398.667 849 396 852C389.6 867.2 456.667 862.667 491 858.5C496.167 859.167 515.8 857.9 553 847.5C590.2 837.1 600.833 820.833 601.5 814L582.5 826.5C593.167 813.167 613.3 785.1 608.5 779.5C602.5 772.5 580.5 768.5 557 766.5C533.5 764.5 434.5 791 420.5 797.5C409.3 802.7 395.5 815.667 390 821.5L414.5 814L396 837C401.333 836.5 415.5 835.8 429.5 837Z" fill="#9DA982"/>
<path d="M863.52 731.778L859.897 624.353C888.625 634 929.374 621.427 939.34 617.89C942.389 631.525 936.218 697.049 930.649 728.884C929.281 728.884 928.362 729.913 923.906 728.884C923.613 716.343 922.148 664.57 901.042 651.707C875.539 651.707 871.142 711.198 871.142 731.778H863.52Z" fill="#989978"/>
<path d="M930.323 730.813H924.493L923.32 744.641L930.942 745.927H945.306L930.323 730.813Z" fill="#87775E"/>
<path d="M852.088 748.5L863.813 733.386H870.556L872.314 743.998L866.158 747.214L852.088 748.5Z" fill="#87775E"/>
<path d="M924.384 724.145C924.445 725.408 924.493 726.617 924.529 727.764L924.384 724.145C923.24 700.496 917.646 657.957 902.716 651.822C915.643 651.822 920.67 653.438 921.567 654.245L917.528 656.4L924.529 666.633L919.682 665.556L923.048 691.005L924.384 724.145Z" fill="#6F574E"/>
<path d="M947.15 511.787L902.447 473.277L906.217 482.433L933.416 511.787L921.567 540.601L933.416 578.842L944.188 580.188L949.843 577.495L944.188 568.878L947.15 557.567L939.341 547.334L947.15 511.787Z" fill="#646464"/>
<path d="M936.378 511.787L906.217 482.433L933.416 511.787L921.567 540.602L933.416 578.842L944.188 580.188L946.073 575.61L940.687 569.147V557.567L932.069 545.449L936.378 511.787Z" fill="#3B3B3B"/>
<path d="M867.168 485.665C870.131 484.049 879.018 478.663 886.558 473.546C887.815 471.572 888.497 465.306 881.172 456.042C872.016 444.462 847.51 426.958 845.625 373.098C849.664 361.249 859.628 342.667 859.628 342.667C859.628 342.667 922.578 337.822 937.186 366.635C934.224 395.719 929.376 428.035 916.45 442.038L916.037 442.485C903.409 456.164 898.184 461.824 902.446 473.546C918.874 490.243 924.963 520.869 928.219 533.331C931.833 547.158 933.928 558.673 935.125 568.339C936.376 578.441 938.263 603.759 938.263 610.35C905.301 623.276 868.425 619.596 859.628 615.467L859.493 566.454L863.398 516.499L867.168 485.665Z" fill="#646464"/>
<path d="M884.134 618.429C885.211 611.158 874.17 551.643 874.17 551.643L869.054 542.217L866.091 521.212V498.322L861.513 615.736C864.386 616.454 873.362 617.352 884.134 618.429Z" fill="#3B3B3B"/>
<path d="M855.05 342.129C856.935 338.358 913.649 332.165 935.839 345.091C936.396 363.814 937.717 380.75 932.339 403.454C935.929 403.749 943.111 406.168 943.111 413.493C943.111 422.649 931.571 423.187 928.838 418.879C926.854 424.665 924.216 431.908 921.297 438.538C908.802 435.522 888.443 437.281 880.364 438.538C869.772 437.91 849.879 417.748 855.05 342.129Z" fill="#D9D9D9"/>
<path d="M856.666 341.051C874.35 336.653 915.265 331.087 937.455 344.014C938.011 362.736 939.333 379.673 933.954 402.376C937.545 402.671 944.726 405.091 944.726 412.416C944.726 421.572 931.881 423.187 929.147 418.879C927.164 424.665 924.755 430.83 921.836 437.46C909.34 434.444 890.059 436.204 881.98 437.46C871.387 436.832 851.495 416.67 856.666 341.051Z" fill="white"/>
<path d="M900.023 381.177C900.023 390.249 895.923 397.604 890.867 397.604C885.81 397.604 881.71 390.249 881.71 381.177C881.71 372.104 885.81 364.75 890.867 364.75C895.923 364.75 900.023 372.104 900.023 381.177Z" fill="#716D6D"/>
<path d="M897.868 381.177C897.868 389.357 894.251 395.988 889.789 395.988C885.328 395.988 881.71 389.357 881.71 381.177C881.71 372.997 885.328 366.365 889.789 366.365C894.251 366.365 897.868 372.997 897.868 381.177Z" fill="#504A4A"/>
<path d="M929.646 383.601C929.646 391.335 926.39 397.604 922.375 397.604C918.359 397.604 915.104 391.335 915.104 383.601C915.104 375.867 918.359 369.597 922.375 369.597C926.39 369.597 929.646 375.867 929.646 383.601Z" fill="#716D6D"/>
<path d="M926.953 383.331C926.953 390.322 924.3 395.988 921.028 395.988C917.756 395.988 915.104 390.322 915.104 383.331C915.104 376.341 917.756 370.674 921.028 370.674C924.3 370.674 926.953 376.341 926.953 383.331Z" fill="#504A4A"/>
<path d="M941.495 411.877C941.495 414.703 939.204 416.994 936.378 416.994C933.552 416.994 931.261 414.703 931.261 411.877C931.261 409.051 933.552 406.76 936.378 406.76C939.204 406.76 941.495 409.051 941.495 411.877Z" fill="#504A4A"/>
<path d="M925.821 411.234C926.782 410.034 928.838 407.872 928.838 411.338C928.838 415.862 932.608 419.417 933.416 420.764C932.608 420.764 931.531 421.302 929.376 419.148C927.222 416.993 927.049 415.469 925.337 415.108C920.22 414.031 910.256 413.493 910.256 413.493C910.256 413.493 908.102 412.416 908.102 409.453C913.488 409.453 919.014 410.723 925.337 408.376C928.443 407.222 926.753 409.936 925.821 411.234Z" fill="#D9D9D9"/>
<path d="M812.501 605.502L809 599.578L911.064 550.835L972.195 534.677L974.619 545.179L918.066 560.26L812.501 605.502Z" fill="#8FBBB3"/>
<path d="M812.501 605.502V603.348L915.642 555.413L973.003 541.948L974.619 545.179L918.066 560.26L812.501 605.502Z" fill="#719D95"/>
<path d="M910.256 526.598C911.603 529.291 913.219 532.253 920.49 531.176L948.497 529.291L961.692 520.673C957.294 519.416 947.581 517.657 943.919 520.673C939.341 524.443 929.107 520.135 920.49 519.596C911.872 519.057 908.91 523.905 910.256 526.598Z" fill="#D3BDD3"/>
<path d="M918.558 527.209C919.525 529.432 920.685 531.878 925.907 530.989L946.021 529.432L955.498 522.318C952.339 521.28 945.364 519.827 942.733 522.318C939.446 525.43 932.096 521.873 925.907 521.428C919.718 520.984 917.591 524.986 918.558 527.209Z" fill="#FFECFF"/>
<path d="M909.179 532.029L914.296 550.027L970.849 535.485L966.809 518.25L959.807 521.694H952.402L938.263 526.862H930.79L923.587 528.584L916.989 532.029H909.179Z" fill="white"/>
<path d="M842.124 533.331L867.168 485.665L866.899 496.975L855.588 533.331L867.168 557.298L873.093 559.453L876.863 567.262L870.938 569.955L873.093 574.533L880.095 576.688L875.247 585.575L855.588 591.23L846.702 580.727V564.3L842.124 533.331Z" fill="#646464"/>
<path d="M846.971 564.838L842.124 533.331L848.317 564.838L849.664 578.303H851.818L858.012 580.188L866.36 579.381L871.746 586.382L855.588 590.96L846.971 580.727V564.838Z" fill="#3B3B3B"/>
<path d="M870.938 576.418V569.955L873.093 574.533L880.095 576.688L876.594 578.303L870.938 576.418Z" fill="#3B3B3B"/>
<path d="M856.935 614.659L859.628 611.966V614.659C865.373 615.915 880.633 618.483 895.714 618.698C910.795 618.914 930.364 612.863 938.263 609.811V607.657L940.687 608.465L942.033 619.237C940.328 620.134 931.141 625.714 911.064 628.124C890.867 630.547 866.809 627.495 856.935 624.084V614.659Z" fill="#6D5050"/>
<path d="M895.928 630.268L895.249 617.899L919.914 615.197L920.592 627.566L895.928 630.268Z" fill="#DDC87E"/>
<path d="M915.085 620.587L902.222 622.102L902.37 624.791L915.247 623.545L915.085 620.587Z" fill="#6D5050"/>
<path d="M896.182 629.985L895.533 618.154L896.877 618.08L897.512 629.642L896.182 629.985Z" fill="#B69769"/>
<path d="M916.989 546.526L914.026 534.138H923.183H927.491L930.184 544.102L923.183 534.138L927.491 544.102L919.682 546.526L915.642 535.485L916.989 546.526Z" fill="#D9D9D9"/>
<path d="M948.611 707.353L930 750.569L964.244 761L990.3 750.569L997 707.353L973.178 742.373V685L964.244 727.471L948.611 742.373V707.353Z" fill="#BECBA2"/>
<path d="M669.051 287.5C653.851 291.9 657.051 301 660.551 305C656.051 304.167 647.251 300.5 648.051 292.5C648.712 285.895 672.14 280.653 689.857 277.9C694.646 274.821 698.192 271.86 700.051 270L700.051 276.5C697.087 276.849 693.599 277.319 689.857 277.9C684.345 281.445 677.185 285.145 669.051 287.5Z" fill="#6D5050"/>
<path d="M663.5 305.5L649.5 296L649.5 301.5L660.5 309L663.5 305.5Z" fill="#DDC87E"/>
<path d="M433.481 388.936L405.5 451.94L418.205 456.124L443.616 404.137L519.859 410.101L502.807 455.814L515.874 459.949L541.902 396.104L433.481 388.936Z" fill="#747070"/>
<path d="M439.833 399.061L411.852 454.031L418.205 456.123L443.616 404.137L519.859 410.101L502.807 455.814L502.807 463.5L525.5 406.5L439.833 399.061Z" fill="#686262"/>
<path d="M629.933 314.371L620.727 317.078L625.312 323.823L630.995 316.805L629.933 314.371Z" fill="#6D5050"/>
<path d="M635.325 335.361C635.751 338.542 633.692 343.308 632.609 345.293C629.958 345.649 625.581 345.574 629.28 342.428C633.905 338.495 632.988 337.146 635.325 335.361Z" fill="#6D5050"/>
<path d="M620.004 317.176C614.492 319.976 604.226 318.434 599.782 317.312C633.548 374.241 584.467 365.001 594.558 385.36C627.933 381.765 634.213 352.684 633.182 338.593C630.902 341.72 625.61 345.791 622.672 337.058C619.734 328.326 625.28 323.583 628.42 322.303C627.912 319.427 625.517 314.375 620.004 317.176Z" fill="#9EA2C2"/>
<path d="M536.223 287.934C517.728 283.938 469.838 311.56 448.205 325.871C454.25 338.014 482.948 338.874 496.541 337.787C496.468 336.325 501.955 332.056 524.492 326.677C547.029 321.298 548.948 336.154 547.091 344.254L535.844 356.435L511.341 368.554L451.027 388.054L508.348 392.877L526 375.5L543.5 364C564.5 356.435 577.113 385.345 594.197 385.408C628.845 358.385 615.202 329.841 604.05 318.948L584.352 312.022L602.207 305.211L651.076 290.926L661.948 292.412L675.297 287.677L674.182 279.362L678.105 272.948L675.632 254.511L646.711 258.391L633.83 274.839L600.655 293.642C590.55 296.961 576 310 558.685 315.465C544.798 310.704 544.758 291.205 536.223 287.934Z" fill="#646464"/>
<path d="M447.729 333.295C482.144 304.536 528.089 294.055 546.759 292.409C555.497 277.988 521.259 203.826 502.038 189.476C482.816 175.126 469.714 187.189 461.549 194.908C440.22 167.593 426.584 175.678 417.092 181.736C407.601 187.793 400.247 215.276 401.901 233.087C386.162 233.727 384.747 242.381 396.805 280.141C408.862 317.9 425.382 328.565 447.729 333.295Z" fill="white"/>
<path d="M509.846 308.033C494.885 310.629 468.261 329.068 456.82 337.964C459.834 339.399 467.332 341.706 473.211 339.445C486.874 329.368 507.93 323.011 516.75 321.091C515.326 318.706 511.952 312.756 509.846 308.033Z" fill="white"/>
<path d="M406 232C402 204.4 412.833 186.167 418.5 181C406 187.5 400.5 222 402 233C400.833 232.833 398.1 232.8 396.5 234C397.7 235.599 401 235.666 402.5 235.5C402.833 235.5 404 234.8 406 232Z" fill="#D9D9D9"/>
<path d="M486 303.5C472 310.5 449.833 325.5 444 332L448.5 333.5C452 330 464.647 319 484.5 310C514.5 296.4 538.667 292.667 547 292.5C547.5 290.5 548 290 548 288C546.833 287.833 535.854 288.429 528 290C518 292 503.274 294.863 486 303.5Z" fill="#D9D9D9"/>
<path d="M499.5 318C493.9 318.4 472.167 332.5 462 339.5C466.5 341 469.5 339.5 473.5 339.5C481.9 331.9 505.667 324 516.5 321C513.167 319.833 505.1 317.6 499.5 318Z" fill="#D9D9D9"/>
<path d="M499.106 376.11L513.258 380.099L514.788 394.247L505.556 394.013L497.969 400.551L498.987 408.143L507.593 409.196L499.715 413.565L485.713 416.18L471.632 409.973L453.72 405.383L448.932 386.153L465.385 374.378L499.106 376.11Z" fill="#646464"/>
<path d="M466 391.5L479.5 393.5L488.5 396.5L492 400.551L497.969 400.551L498.987 408.143L507.593 409.196L499.715 413.565L485.713 416.18L471.632 409.973L453.72 405.383L450 386.5L457.5 391.5L466 391.5Z" fill="#3B3B3B"/>
<path d="M473 238.5L483 244.5L467.5 265L488 260.5L493 274L458 276.5L453.5 268L473 238.5Z" fill="#716D6D"/>
<path d="M472.266 241L481 247L467.114 265.408L483 263L491 273.697L458.215 276L454 268.5L472.266 241Z" fill="#504A4A"/>
<path d="M424.684 304L417.342 299.579L428.722 284.474L413.671 287.79L410 277.842L435.696 276L439 282.263L424.684 304Z" fill="#716D6D"/>
<path d="M425.671 302L418.836 297.895L429.431 283.869L415.418 286.948L412 277.711L435.924 276L439 281.816L425.671 302Z" fill="#504A4A"/>
<path d="M460.471 706.071C448.709 688.768 495.99 700.432 502.509 690.379C513.906 694.969 536.604 706.696 536.222 716.887C535.841 727.078 550.316 740.492 557.601 745.925C558.14 752.117 555.47 765.879 540.474 771.387C521.73 778.272 475.173 727.7 460.471 706.071Z" fill="#504A4A"/>
<path d="M316.654 738.476L339.665 698.239C360.101 681.162 413.453 687.903 422.621 697.6C351.179 741.712 377.904 791.058 346.519 785.169C309.575 778.237 311.216 751.152 316.654 738.476Z" fill="#504A4A"/>
<path d="M609.958 676.838C597.099 690.451 570.155 684.217 558.291 679.399C559.719 662.89 568.916 628.935 594.287 625.182C619.657 621.429 626.011 633.601 626.016 640.156C626.021 646.711 622.817 663.225 609.958 676.838Z" fill="#504A4A"/>
<path d="M599.125 661.245C581.6 667.845 570.156 684.217 558.291 679.398C559.719 662.89 565.937 629.53 591.307 625.777C616.678 622.024 623.031 634.196 623.037 640.751C623.042 647.306 620.759 653.098 599.125 661.245Z" fill="#453E3E"/>
<path d="M362.378 714.423C315.633 707.407 310.819 661.316 314.255 639.148C301.262 628.304 298.045 593.246 298.06 577.073C299.444 577.615 303.193 580.143 307.113 585.91C300.415 572.473 305.275 530.941 308.542 511.855L313.621 526.908L315.364 487.776L317.668 504.949C320.91 463.955 339.05 433.024 347.715 422.684L343.862 436.312L373.434 402.625L363.601 420.553C368.111 416.16 379.787 407.629 390.413 408.651C371.041 438.873 384.454 436.986 393.581 432.265L436.478 416.458L426.127 430.521L449.908 422.086L438.148 428.908L484.051 412.698C482.544 414.502 476.346 421.074 463.6 432.924C498.863 428.63 533.126 426.656 543.765 414.739C549.432 428.315 536.706 452.254 529.634 462.527L548.891 452.95C550.143 454.676 552.963 461.145 554.232 473.213C562.819 472.061 588.631 498.318 600.464 511.591L594.401 518.523L602.02 523.183L595.957 530.115C601.444 530.836 613.878 532.082 619.717 531.298C622.837 538.922 609.285 564.312 602.119 576.054C607.626 576.918 619.972 577.505 625.304 572.944C629.409 580.085 611.181 607.764 601.554 620.71C606.487 619.466 617.741 616.266 623.304 613.422C624.297 623.429 598.038 649.882 584.784 661.859L602.078 666.969L559.873 687.928C562.327 689.93 569.037 693.691 576.25 692.724C574.583 698.542 553.328 701.044 542.909 701.567C545.042 707.691 544.573 720.487 525.636 722.678C506.699 724.869 489.476 714.855 483.231 709.573C483.758 712.416 485.907 719.092 490.284 723.05C484.445 723.834 460.684 709.83 449.533 702.73C449.108 707.158 447.925 717.457 446.601 723.229C436.021 722.55 417.675 705.256 409.825 696.694C406.039 699.97 399.42 708.404 403.228 715.936C391.667 720.983 382.808 703.815 370.237 698.071C357.666 692.328 355.472 705.297 362.378 714.423Z" fill="#504A4A"/>
<path d="M340.335 677.17C321.042 663.674 322.159 595.984 325.129 563.825C319.866 556.082 312.752 535.416 326.407 514.703C340.061 493.99 394.406 507.912 419.871 517.462C436.757 524.957 472.553 538.104 480.654 530.723C490.78 521.498 491.701 528.367 494.309 531.514C496.916 534.661 490.12 555.677 476.345 583.312C462.57 610.947 480.728 658.336 476.304 674.226C471.88 690.117 438.7 687.138 426.621 688.322C414.542 689.505 395.384 680.274 380.928 680.028C366.472 679.783 364.451 694.04 340.335 677.17Z" fill="#694A4A"/>
<path d="M357.448 607.635C343.304 597.813 345.468 591.713 347.669 568.276C343.812 562.636 338.607 547.581 348.638 532.478C358.669 517.374 398.528 527.483 417.203 534.426C429.586 539.877 455.838 549.433 461.785 544.05C469.22 537.32 469.892 542.325 471.802 544.617C473.713 546.908 468.048 566.756 457.924 586.904C447.8 607.052 460.455 593.816 457.199 605.399C453.943 616.982 429.604 614.834 420.742 615.704C411.879 616.574 397.831 609.86 387.226 609.691C376.621 609.521 375.129 619.912 357.448 607.635Z" fill="#503D3D"/>
<path d="M406.651 594.848C394.261 593.713 390.581 604.288 390.289 609.717C402.335 614.803 427.972 624.767 434.155 623.937C441.883 622.901 465.381 654.713 480.246 664.52C495.111 674.326 545.887 668.388 555.95 616.339C564 574.7 539.035 571.697 525.545 575.401C521.484 579.879 510.175 591.798 497.429 603.648C481.497 618.46 466.716 606.02 445.097 597.994C427.802 591.573 423.294 597.277 423.201 600.931C422.847 599.376 419.041 595.983 406.651 594.848Z" fill="#BB7E7E"/>
<path d="M406.651 594.847C394.261 593.712 390.581 604.288 390.289 609.717C402.335 614.803 427.972 624.767 434.155 623.937C441.883 622.9 465.381 654.713 480.246 664.519C495.111 674.326 545.887 668.388 555.95 616.339C564 574.699 541.526 691.263 457.978 632.105C434.344 615.37 466.716 606.02 445.097 597.994C427.803 591.572 423.294 597.276 423.201 600.931C422.847 599.376 419.041 595.982 406.651 594.847Z" fill="#845959"/>
<path d="M411.745 486.209L418.001 470.947L456.799 447.386L449.908 457.925L476.977 444.678L475.239 454.527L506.596 434.149L502.287 450.898L530.215 437.536L508.225 465.836L520.367 471.637L460.265 486.256L461.118 479.586L433.672 486.764L438.793 482.581L411.745 486.209Z" fill="#453E3E"/>
<path d="M373.073 452.062L390.524 474.633L391.445 481.503L379.88 479.995L378.257 490.702L364.334 478.147L345.15 471.979L347.8 491.729L328.286 466.811C328.286 466.811 332.368 480.949 320.694 459.089C306.101 431.763 318.479 409.998 315.222 418.302C312.617 424.945 325.313 437.053 331.987 442.276L330.375 430.255L352.894 454.769L350.878 439.742L372.507 460.879L373.073 452.062Z" fill="#453E3E"/>
<path d="M409.399 488.272L416.849 462.36L455.646 438.798L448.756 449.338L475.825 436.091L474.087 445.94L505.444 425.562L501.135 442.311L529.063 428.949L507.073 457.249L519.215 463.05L465.213 480.784L464.291 473.915L431.698 488.34L436.814 477.601L409.399 488.272Z" fill="#5F5050"/>
<path d="M371.921 443.474L389.372 466.046L391.733 483.649L376.125 474.816L378.084 489.413L367.968 475.91L344.344 465.968L347.051 486.146L327.17 468.272L334.48 480.403C332.333 480.691 325.121 475.802 313.447 453.941C298.855 426.616 317.326 401.41 314.07 409.714C311.465 416.358 324.161 428.465 330.835 433.689L329.222 421.668L351.742 446.181L349.726 431.155L371.355 452.291L371.921 443.474Z" fill="#5F5050"/>
<path d="M311.302 597.586C306.916 554.468 317.142 528.184 322.804 520.431C332.074 516.532 340.018 519.929 346.275 525.975C353.239 519.246 369.029 507.276 376.471 513.232C383.913 519.187 381.261 528.307 379.005 532.122C373.825 545.638 363.938 576.189 365.827 590.271C354.476 570.815 350.837 559.983 350.437 556.998C336.614 567.961 318.075 584.588 311.302 597.586Z" fill="#D9D9D9"/>
<path d="M404.037 513.467C393.842 507.842 386.755 516.044 384.486 520.849C380.202 541.043 397.184 569.893 403.488 577.789C402.085 569.935 416.16 543.018 423.373 530.541C421.176 527.194 414.233 519.092 404.037 513.467Z" fill="#D9D9D9"/>
<path d="M426.808 530.08C433.524 528.014 447.668 526.582 450.516 537.389C455.969 534.596 467.724 530.134 471.124 534.624C474.524 539.115 462.757 567.82 456.449 581.611C457.006 569.478 456.6 543.649 450.516 537.389C445.121 549.302 435.05 574.138 430.688 585.067L426.808 530.08Z" fill="#D9D9D9"/>
<path d="M332.109 664.725C322.505 653.076 326.847 635.274 330.219 627.828C344.051 654.294 358.21 656.853 363.561 654.824C368.533 656.051 376.012 661.632 366.153 674.144C353.828 689.783 344.115 679.286 332.109 664.725Z" fill="#D9D9D9"/>
<path d="M373.446 666.61C370.187 657.956 374.063 627.774 376.409 613.764C384.254 627.718 401.343 658.234 406.939 668.672C396.358 681.018 377.519 677.427 373.446 666.61Z" fill="#D9D9D9"/>
<path d="M435.705 664.813C420.006 678.108 410.957 669.299 408.395 663.232C407.059 653.272 416.98 636.002 422.107 628.613C425.024 636.234 431.826 654.145 435.705 664.813Z" fill="#D9D9D9"/>
<path d="M461.727 666.567C450.602 672.255 445.524 665.244 444.375 661.028C447.74 656.788 454.577 645.848 455.004 636C462.994 640.173 464.125 658.378 461.727 666.567Z" fill="#D9D9D9"/>
<path d="M347.182 542.511C337.406 545.221 319.398 579.746 311.616 596.67C315.959 587.346 339.015 566.334 349.999 556.993C349.846 555.848 349.067 551.349 347.182 542.511Z" fill="#BFBABA"/>
<path d="M372.167 536.536C378.752 523.066 378.22 516.494 377.131 514.891C379.279 516.788 382.725 522.707 379.32 531.206C369.058 556.359 365.972 580.491 365.712 589.413C365.12 577.4 365.583 550.007 372.167 536.536Z" fill="#BFBABA"/>
<path d="M403.059 577.847C384.532 549.213 382.676 527.988 384.063 520.954C385.616 518.415 388.514 516.336 387.676 528.337C386.629 543.337 398.698 564.883 403.059 577.847Z" fill="#BFBABA"/>
<path d="M434.254 569.291C434.459 568.214 429.816 543.808 427.468 531.74L430.573 584.208C431.715 579.684 434.049 570.367 434.254 569.291Z" fill="#BFBABA"/>
<path d="M462.689 546.682C461.265 541.279 455.202 538.654 452.349 538.017C458.1 541.791 457.688 568.041 456.763 580.694C459.332 571.608 464.114 552.086 462.689 546.682Z" fill="#BFBABA"/>
<path d="M362.273 654.997C348.764 658.557 335.352 638.94 330.334 628.687C331.601 638.132 350.314 663.594 360.393 667.049C368.456 669.814 370.601 664.951 370.666 662.175C370.626 659.703 368.891 654.808 362.273 654.997Z" fill="#BFBABA"/>
<path d="M450.015 660.708C447.338 664.214 445.465 662.63 444.862 661.399C450.789 656.059 454.17 642.814 455.119 636.859C454.533 643.348 452.691 657.202 450.015 660.708Z" fill="#BFBABA"/>
<path d="M551.651 538.681L530.184 541.561L547.075 543.666L531.164 548.86L545.138 555.29L536.53 566.06L562.338 549.923L544.389 549.708C553.728 546.561 572.811 538.727 574.432 532.566C563.328 535.804 550.185 531.011 545.002 528.21L569.872 521.377L504.885 512.613L556.133 523.22L521.927 525.624L551.651 538.681Z" fill="#453E3E"/>
<path d="M332.005 748.655C318.036 748.781 313.319 755.97 316.56 763.839C321.301 775.351 330.378 780.835 341.876 783.138C353.374 785.442 364.159 776.129 358.84 769.499C344.355 754.047 341.173 748.572 332.005 748.655Z" fill="#453E3E"/>
<path d="M281 847C282.333 833.5 290.3 804.4 311.5 796C315.058 794.59 317.971 793.067 320.339 791.483L327.5 770C330.413 774.3 332.079 783.631 320.339 791.483L311.5 818L327.5 811L357 796L345 827.5L397.5 796L357 827.5L392 821.5L345 859H233L270.5 821.5L259 847L270.5 838L281 847Z" fill="#B5C299"/>
<path d="M1236.87 769.698C1236.81 762.268 1231.82 751.523 1224.15 743.897L1218.94 724.95C1216 727.072 1212.59 733.519 1222.49 742.328C1223.06 742.834 1223.61 743.357 1224.15 743.897L1229 761.5L1217.5 755.5L1197.66 733.26L1212 759.5L1175.56 725.189L1191.38 750.45L1173.47 740.201L1181.5 752.5L1170.5 755.5L1178 761.5L1193.5 764.5L1254 782L1241 770.032L1242.5 750.45L1238 759.5L1236.87 769.698Z" fill="#B5C299"/>
<path d="M635.403 711.146L603 737.5L621 715.5L635.403 711.146L640.5 707L661.5 696.5L642.5 709L635.403 711.146Z" fill="#B5C299"/>
<path d="M645 671.5L636 683.5L648 674L650.5 667.5L645 671.5Z" fill="#B5C299"/>
<path d="M579 719.5C587 714.3 592.667 718.667 594.5 721.5C589.301 720.378 578.474 719.194 575.24 723.02C575.121 723.178 575.005 723.338 574.892 723.5C570.911 729.197 570.843 737.057 571.5 741C573.333 738 577.8 731.6 581 730C585 728 577 741 571.5 741C570.843 737.057 570.911 729.197 574.892 723.5C574.995 723.332 575.112 723.172 575.24 723.02C576.249 721.684 577.487 720.483 579 719.5Z" fill="#B5C299"/>
<path d="M1171.77 233.868C1166.32 232.484 1158.67 224.481 1155.53 220.652L1144.87 210.389L1136.74 185.399L1141.51 188.177L1139.28 154.494L1170.87 138.864C1170.87 138.864 1178.53 172.562 1192.02 168.284C1201.61 165.243 1201.71 159.811 1201.71 159.811C1202.68 164.983 1206.75 179.154 1208.75 185.23C1211.25 192.824 1196.42 200.624 1194.73 209.382C1193.37 216.388 1187.3 217.291 1184.44 216.866C1182.48 223.11 1177.22 235.252 1171.77 233.868Z" fill="#D9D9D9"/>
<path d="M1170.08 232.08C1164.64 230.696 1156.99 222.693 1153.85 218.864L1143.19 208.601L1135.06 183.611L1139.83 186.389L1137.59 152.706L1167.95 139.525C1167.95 139.525 1174.52 170.511 1188.21 168.56C1194.3 167.692 1201.64 160.33 1201.64 160.33C1202.61 165.502 1205.06 177.366 1207.06 183.442C1209.56 191.036 1194.74 198.836 1193.04 207.594C1191.68 214.6 1185.62 215.503 1182.75 215.078C1180.8 221.322 1175.53 233.464 1170.08 232.08Z" fill="white"/>
<path d="M1184.46 188.913L1166.12 180.938L1163.76 186.77L1178.11 195.825L1184.46 188.913Z" fill="#716D6D"/>
<path d="M1152.96 186.12L1157.56 197.792L1153.53 199.38L1155.62 204.685L1152.64 205.856L1145.96 188.879L1152.96 186.12Z" fill="#716D6D"/>
<path d="M1184.46 188.913L1167.3 181.453L1166.13 186.571L1178.2 194.809L1184.46 188.913Z" fill="#504A4A"/>
<path d="M1152.96 186.12L1157.56 197.792L1153.53 199.38L1155.62 204.685L1153.71 205.438L1147.35 189.31L1152.96 186.12Z" fill="#504A4A"/>
<path d="M1216.16 353.413L1211.39 350.635L1218.07 343.343L1218.07 352.661L1216.16 353.413Z" fill="#6D5050"/>
<path d="M1264.43 314.788L1260.77 317.945L1263.11 323.887L1270.62 330.492L1269.32 319.727L1264.43 314.788Z" fill="#6D5050"/>
<path d="M1155.08 165.363L1167.76 147.133C1169.69 144.983 1174.29 139.705 1177.26 135.79C1181.61 133.882 1184.76 137.821 1185.79 140.028L1175.69 152.342L1161.83 171.286C1160.58 171.858 1157.7 172.518 1156.15 170.578C1154.61 168.639 1154.79 166.293 1155.08 165.363Z" fill="#6D5050"/>
<path d="M1209.87 97.2093L1178.62 135.501L1181.62 136.279L1209.44 102.347C1208.97 105.718 1208.54 115.872 1219.36 119.453C1230.19 123.034 1239.49 113.912 1242.12 108.773C1244.75 103.635 1245.73 91.5174 1235.96 88.1567C1225.75 84.6444 1214.95 91.8573 1209.87 97.2093Z" fill="url(#paint10_linear_410_2)"/>
<path d="M1160.79 143.751L1162.68 154.773L1167.37 148.021C1167.87 147.007 1169.72 145.526 1173.13 147.712C1176.54 149.899 1175.93 155.436 1175.2 157.931L1179.75 162.021L1199.06 201.724C1201.56 208.259 1205.94 223.53 1203.52 232.327C1201.1 241.124 1192.66 239.611 1192.66 239.611C1192.66 239.611 1184.19 237.898 1186.58 228.525C1189.56 216.809 1197.9 210.584 1196.66 204.945C1195.34 205.954 1192.31 218.178 1184.69 216.275C1182.49 224.988 1179.15 231.45 1172.11 233.488C1174.02 235.023 1177.86 234.408 1176.11 241.161C1173.43 251.501 1169.66 248.44 1164.86 245.591L1144.99 207.579L1167.56 169.029L1169.42 160.695L1161.61 171.37C1161.61 171.37 1159.3 172.773 1156.83 171.048C1154.36 169.322 1155.16 165.575 1155.16 165.575L1162.21 155.448L1159.73 144.168L1163.09 139.654L1154.21 146.342L1152.79 158.913L1145.38 174.333L1132.01 211.957L1162.88 252.992C1163.94 266.057 1167.19 308.753 1173.65 330.133C1208.46 338.238 1222.93 317.095 1232.7 303.932C1221.54 293.031 1213.71 250.536 1210.95 236.263L1207.76 198.297L1195.46 154.607L1193.32 142.949L1173.05 131.321L1160.79 143.751Z" fill="#646464"/>
<path d="M1210.46 353.877C1192.23 358.897 1178.57 341.185 1174.02 331.702C1211.71 340.881 1227.29 310.722 1232.79 304.144C1240.25 318.118 1261.36 315.689 1264.13 319.007C1266.36 321.662 1265.06 324.687 1264.14 325.868C1261.17 329.326 1254.21 336.887 1250.13 339.475C1245.03 342.709 1224.9 337.647 1221.56 337.248C1221.21 338.856 1219.45 342.489 1210.46 353.877Z" fill="#9A6565"/>
<path d="M1240.16 100.053C1242.79 106.733 1238.46 114.694 1230.49 117.833C1222.52 120.972 1213.93 118.101 1211.3 111.42C1208.66 104.74 1212.99 96.7795 1220.96 93.6405C1228.93 90.5014 1237.53 93.3723 1240.16 100.053Z" fill="url(#paint11_radial_410_2)"/>
<path d="M1215.48 44.3597L1238.4 86.532L1273.5 53.7848L1240.47 88.6184L1282.46 111.876L1239.13 91.2317L1229.98 138.353L1236.23 90.7604L1188.59 96.6255L1235.78 87.8559L1215.48 44.3597Z" fill="url(#paint12_radial_410_2)"/>
<path d="M1169.59 325.425L1171.72 323.361L1172.47 325.271C1187.92 336.481 1221.96 316.074 1229.22 301.938L1229.07 299.057L1232.28 299.751L1235.6 305.063C1233.74 308.653 1227.71 318.153 1212.78 326.797C1198.21 335.233 1182.95 337.566 1171.67 333.187L1169.59 325.425Z" fill="#6D5050"/>
<path d="M1508 412.5C1457 361.5 1362.5 320.5 1301 294.5C1320.6 281.7 1339.5 289.167 1346.5 294.5C1349 290.5 1365.6 284.9 1412 294.5C1470 306.5 1499 388.5 1508 412.5Z" fill="url(#paint13_linear_410_2)"/>
<path d="M1025 371.5C1055.5 371.5 1086 376.8 1114 388C1092.8 362.8 1045.83 366.5 1025 371.5Z" fill="white" fill-opacity="0.38"/>
<path d="M1190.5 433C1155 409 1117.5 406 1117.5 406C1118.5 402.167 1143 398.5 1163.5 406C1184 413.5 1190.5 423 1190.5 433Z" fill="white" fill-opacity="0.38"/>
<path d="M1233 93C1237.17 94.5 1244.5 100.2 1240.5 109C1236.5 117.8 1227.83 119.667 1224.5 119.5" stroke="url(#paint14_radial_410_2)"/>
</g>
<mask id="path-96-outside-1_410_2" maskUnits="userSpaceOnUse" x="629.921" y="59.1807" width="465" height="129" fill="black">
<rect fill="white" x="629.921" y="59.1807" width="465" height="129"/>
<path fill-rule="evenodd" clip-rule="evenodd" d="M754.364 133.441H770.351L773.998 134.072L772.347 130.319L771.135 115.342L762.75 108.493L754.364 115.342L753.152 130.319L751.501 134.072L754.364 133.441ZM745.072 108.493L754.364 93.6248L762.75 88.0878L771.135 93.6248L780.427 108.493L781.945 127.917L794.36 150.71V159.647L781.945 152.144L778.327 143.784L771.135 141.652H754.364L747.173 143.784L743.554 152.144L731.139 159.647V150.314L743.554 127.917L745.072 108.493ZM734.504 90.8765L738.847 83.9272L744.282 78.3552L752.667 72.8182L772.832 72.8181L781.218 78.3551L786.652 83.9272L788.143 86.3125L790.176 83.825L799.398 76.5555L806.29 73.1732L817.649 70.3353L824.275 69.9212L840.224 71.8448L851.732 77.88L851.911 78.0827L869.281 68.1807L886.621 78.4468L887.465 79.9272L889.408 78.1185L914.732 68.5849L928.663 78.226L946.757 77.4422L951.823 74.5842L961.821 70.9117L971.155 70.0413L978.996 71.3554L986.837 70.0413L996.171 70.9117L1006.17 74.5842L1011.4 77.5635L1012.49 78.4463L1014.89 76.5555L1021.78 73.1732L1033.14 70.3353L1039.77 69.9212L1055.71 71.8448L1067.31 77.9743L1077.27 89.3861L1081.79 101.423V106.852L1081.08 111.893L1079.31 118.088L1079.56 118.311L1081.03 124.634L1083.87 132.045L1085.08 138.59V148.103L1077.18 163.16L1064.67 171.794L1062.9 172.874L1055.76 176.691L1047.13 178.852H1032.35L1026.28 177.814L1018.43 175.051L1010.9 170.026L1003.46 161.754L1001.86 158.29L995.773 170.137L989.652 174.522H968.339L962.219 170.137L958.261 162.433L951.131 172.533L942.828 176.306L926.358 175.635L921.597 172.985L916.215 176.618L901.033 170.497L897.293 168.455L889.062 162.62L885.469 167.208L880.41 169.346L875.02 173.779L857.168 166.28L849.182 171.794L847.411 172.874L840.27 176.691L831.644 178.852H816.861L810.786 177.814L802.936 175.051L795.405 170.026L795.019 169.597L784.896 175.307L772.481 167.804L765.623 159.951H759.877L753.019 167.804L740.604 175.307L726.281 167.228L713.197 174.732L703.072 167.516L703.032 167.554H678.005L677.958 167.51L667.636 174.656L638.996 157.957L641.117 134.608L639.23 124.462L638.921 121.116V114.703L640.048 108.382L648.805 84.5912L661.408 73.1932L672.36 70.3692L690.519 80.2457L708.677 70.3692L719.629 73.1932L732.269 84.6922L734.504 90.8765ZM690.519 128.804L676.929 88.0878L665.977 90.9119L657.22 114.703V121.116L659.569 133.747L657.22 159.612L668.006 152.144L671.423 133.747L672.906 118.277H673.341L681.355 130.315L687.443 151.32L690.519 154.203L693.595 151.32L699.682 130.315L707.696 118.277H708.131L709.614 133.747L713.031 152.144L723.817 159.831L721.468 133.747L723.817 121.116V115.141L715.06 90.9119L704.108 88.0878L690.519 128.804ZM851.29 148.103V130.992L848 130.002L846.246 122.452L839.235 121.778L830.444 116.627L824.971 115.367L819.466 112.148L815.981 108.513H815.476L819.466 103.791L826.64 104.953L834.007 104.331L843.139 110.471L845.336 116.145L848 106.852V101.266L838.033 90.0114L822.084 88.0878L810.726 90.9257L801.504 98.1953L797.556 106.023V112.148L800.477 117.046L802.138 123.167L810.02 124.584L821.223 128.232L826.64 134.726L834.007 141.248L828.652 146.005L823.929 144.606L816.861 146.005L812.594 140.273L806.207 138.59L803.868 132.854L800.477 133.271V141.248L801.572 149.519L809.011 157.791L816.861 160.554H831.644L838.785 156.736L851.29 148.103ZM861.783 123.486L863.397 133.37L861.783 141.185L863.397 159.647L870.839 153.526L878.346 150.353L879.894 140.632L885.887 132.335L894.271 143.884L907.875 153.526L923.057 159.647V150.353L905.184 127.442L898.756 120.302L909.37 103.508L921.179 89.9224V85.7099L895.854 95.2435L889.856 108.276L880.887 115.051L877.299 104.758V94.1925L859.959 83.9264V88.0878L864.742 100.856L861.783 123.486ZM928.479 155.874L935.258 159.647L943.561 155.874L944.945 139.657L943.561 123.486L944.945 108.276L941.189 96.2139L935.258 88.0878L930.343 96.2139L926.834 108.209L928.479 123.419L926.834 139.601L928.479 155.874ZM950.006 103.689L964.233 100.13L970.071 103.689V117.678L972.875 131.668V155.262L978.996 159.647L985.117 155.262V131.668L987.921 117.678V103.689L993.759 100.13L1007.99 103.689V98.368L999.86 91.7604L989.861 88.0878L978.996 89.9089L968.13 88.0878L958.132 91.7604L950.006 98.2674V103.689ZM1066.78 148.103V138.59L1063.49 130.002L1061.74 122.452L1054.73 121.778L1045.93 116.627L1040.46 115.367L1034.96 112.148L1031.47 108.513H1030.97L1034.96 103.791L1042.13 104.953L1049.5 104.331L1058.63 110.471L1060.83 116.145L1063.49 106.852V101.423L1053.52 90.0114L1037.58 88.0878L1026.22 90.9257L1016.99 98.1953L1013.05 106.259V112.148L1015.97 117.046L1017.63 123.167L1025.51 124.584L1036.71 128.232L1042.13 134.726L1049.5 141.248L1044.14 146.005L1039.42 144.606L1032.35 146.005L1028.08 140.273L1021.7 138.59L1019.36 132.854L1015.97 133.503V141.248L1017.06 149.519L1024.5 157.791L1032.35 160.554H1047.13L1054.28 156.736L1066.78 148.103Z"/>
</mask>
<path fill-rule="evenodd" clip-rule="evenodd" d="M754.364 133.441H770.351L773.998 134.072L772.347 130.319L771.135 115.342L762.75 108.493L754.364 115.342L753.152 130.319L751.501 134.072L754.364 133.441ZM745.072 108.493L754.364 93.6248L762.75 88.0878L771.135 93.6248L780.427 108.493L781.945 127.917L794.36 150.71V159.647L781.945 152.144L778.327 143.784L771.135 141.652H754.364L747.173 143.784L743.554 152.144L731.139 159.647V150.314L743.554 127.917L745.072 108.493ZM734.504 90.8765L738.847 83.9272L744.282 78.3552L752.667 72.8182L772.832 72.8181L781.218 78.3551L786.652 83.9272L788.143 86.3125L790.176 83.825L799.398 76.5555L806.29 73.1732L817.649 70.3353L824.275 69.9212L840.224 71.8448L851.732 77.88L851.911 78.0827L869.281 68.1807L886.621 78.4468L887.465 79.9272L889.408 78.1185L914.732 68.5849L928.663 78.226L946.757 77.4422L951.823 74.5842L961.821 70.9117L971.155 70.0413L978.996 71.3554L986.837 70.0413L996.171 70.9117L1006.17 74.5842L1011.4 77.5635L1012.49 78.4463L1014.89 76.5555L1021.78 73.1732L1033.14 70.3353L1039.77 69.9212L1055.71 71.8448L1067.31 77.9743L1077.27 89.3861L1081.79 101.423V106.852L1081.08 111.893L1079.31 118.088L1079.56 118.311L1081.03 124.634L1083.87 132.045L1085.08 138.59V148.103L1077.18 163.16L1064.67 171.794L1062.9 172.874L1055.76 176.691L1047.13 178.852H1032.35L1026.28 177.814L1018.43 175.051L1010.9 170.026L1003.46 161.754L1001.86 158.29L995.773 170.137L989.652 174.522H968.339L962.219 170.137L958.261 162.433L951.131 172.533L942.828 176.306L926.358 175.635L921.597 172.985L916.215 176.618L901.033 170.497L897.293 168.455L889.062 162.62L885.469 167.208L880.41 169.346L875.02 173.779L857.168 166.28L849.182 171.794L847.411 172.874L840.27 176.691L831.644 178.852H816.861L810.786 177.814L802.936 175.051L795.405 170.026L795.019 169.597L784.896 175.307L772.481 167.804L765.623 159.951H759.877L753.019 167.804L740.604 175.307L726.281 167.228L713.197 174.732L703.072 167.516L703.032 167.554H678.005L677.958 167.51L667.636 174.656L638.996 157.957L641.117 134.608L639.23 124.462L638.921 121.116V114.703L640.048 108.382L648.805 84.5912L661.408 73.1932L672.36 70.3692L690.519 80.2457L708.677 70.3692L719.629 73.1932L732.269 84.6922L734.504 90.8765ZM690.519 128.804L676.929 88.0878L665.977 90.9119L657.22 114.703V121.116L659.569 133.747L657.22 159.612L668.006 152.144L671.423 133.747L672.906 118.277H673.341L681.355 130.315L687.443 151.32L690.519 154.203L693.595 151.32L699.682 130.315L707.696 118.277H708.131L709.614 133.747L713.031 152.144L723.817 159.831L721.468 133.747L723.817 121.116V115.141L715.06 90.9119L704.108 88.0878L690.519 128.804ZM851.29 148.103V130.992L848 130.002L846.246 122.452L839.235 121.778L830.444 116.627L824.971 115.367L819.466 112.148L815.981 108.513H815.476L819.466 103.791L826.64 104.953L834.007 104.331L843.139 110.471L845.336 116.145L848 106.852V101.266L838.033 90.0114L822.084 88.0878L810.726 90.9257L801.504 98.1953L797.556 106.023V112.148L800.477 117.046L802.138 123.167L810.02 124.584L821.223 128.232L826.64 134.726L834.007 141.248L828.652 146.005L823.929 144.606L816.861 146.005L812.594 140.273L806.207 138.59L803.868 132.854L800.477 133.271V141.248L801.572 149.519L809.011 157.791L816.861 160.554H831.644L838.785 156.736L851.29 148.103ZM861.783 123.486L863.397 133.37L861.783 141.185L863.397 159.647L870.839 153.526L878.346 150.353L879.894 140.632L885.887 132.335L894.271 143.884L907.875 153.526L923.057 159.647V150.353L905.184 127.442L898.756 120.302L909.37 103.508L921.179 89.9224V85.7099L895.854 95.2435L889.856 108.276L880.887 115.051L877.299 104.758V94.1925L859.959 83.9264V88.0878L864.742 100.856L861.783 123.486ZM928.479 155.874L935.258 159.647L943.561 155.874L944.945 139.657L943.561 123.486L944.945 108.276L941.189 96.2139L935.258 88.0878L930.343 96.2139L926.834 108.209L928.479 123.419L926.834 139.601L928.479 155.874ZM950.006 103.689L964.233 100.13L970.071 103.689V117.678L972.875 131.668V155.262L978.996 159.647L985.117 155.262V131.668L987.921 117.678V103.689L993.759 100.13L1007.99 103.689V98.368L999.86 91.7604L989.861 88.0878L978.996 89.9089L968.13 88.0878L958.132 91.7604L950.006 98.2674V103.689ZM1066.78 148.103V138.59L1063.49 130.002L1061.74 122.452L1054.73 121.778L1045.93 116.627L1040.46 115.367L1034.96 112.148L1031.47 108.513H1030.97L1034.96 103.791L1042.13 104.953L1049.5 104.331L1058.63 110.471L1060.83 116.145L1063.49 106.852V101.423L1053.52 90.0114L1037.58 88.0878L1026.22 90.9257L1016.99 98.1953L1013.05 106.259V112.148L1015.97 117.046L1017.63 123.167L1025.51 124.584L1036.71 128.232L1042.13 134.726L1049.5 141.248L1044.14 146.005L1039.42 144.606L1032.35 146.005L1028.08 140.273L1021.7 138.59L1019.36 132.854L1015.97 133.503V141.248L1017.06 149.519L1024.5 157.791L1032.35 160.554H1047.13L1054.28 156.736L1066.78 148.103Z" fill="#B5C299"/>
<path fill-rule="evenodd" clip-rule="evenodd" d="M754.364 133.441H770.351L773.998 134.072L772.347 130.319L771.135 115.342L762.75 108.493L754.364 115.342L753.152 130.319L751.501 134.072L754.364 133.441ZM745.072 108.493L754.364 93.6248L762.75 88.0878L771.135 93.6248L780.427 108.493L781.945 127.917L794.36 150.71V159.647L781.945 152.144L778.327 143.784L771.135 141.652H754.364L747.173 143.784L743.554 152.144L731.139 159.647V150.314L743.554 127.917L745.072 108.493ZM734.504 90.8765L738.847 83.9272L744.282 78.3552L752.667 72.8182L772.832 72.8181L781.218 78.3551L786.652 83.9272L788.143 86.3125L790.176 83.825L799.398 76.5555L806.29 73.1732L817.649 70.3353L824.275 69.9212L840.224 71.8448L851.732 77.88L851.911 78.0827L869.281 68.1807L886.621 78.4468L887.465 79.9272L889.408 78.1185L914.732 68.5849L928.663 78.226L946.757 77.4422L951.823 74.5842L961.821 70.9117L971.155 70.0413L978.996 71.3554L986.837 70.0413L996.171 70.9117L1006.17 74.5842L1011.4 77.5635L1012.49 78.4463L1014.89 76.5555L1021.78 73.1732L1033.14 70.3353L1039.77 69.9212L1055.71 71.8448L1067.31 77.9743L1077.27 89.3861L1081.79 101.423V106.852L1081.08 111.893L1079.31 118.088L1079.56 118.311L1081.03 124.634L1083.87 132.045L1085.08 138.59V148.103L1077.18 163.16L1064.67 171.794L1062.9 172.874L1055.76 176.691L1047.13 178.852H1032.35L1026.28 177.814L1018.43 175.051L1010.9 170.026L1003.46 161.754L1001.86 158.29L995.773 170.137L989.652 174.522H968.339L962.219 170.137L958.261 162.433L951.131 172.533L942.828 176.306L926.358 175.635L921.597 172.985L916.215 176.618L901.033 170.497L897.293 168.455L889.062 162.62L885.469 167.208L880.41 169.346L875.02 173.779L857.168 166.28L849.182 171.794L847.411 172.874L840.27 176.691L831.644 178.852H816.861L810.786 177.814L802.936 175.051L795.405 170.026L795.019 169.597L784.896 175.307L772.481 167.804L765.623 159.951H759.877L753.019 167.804L740.604 175.307L726.281 167.228L713.197 174.732L703.072 167.516L703.032 167.554H678.005L677.958 167.51L667.636 174.656L638.996 157.957L641.117 134.608L639.23 124.462L638.921 121.116V114.703L640.048 108.382L648.805 84.5912L661.408 73.1932L672.36 70.3692L690.519 80.2457L708.677 70.3692L719.629 73.1932L732.269 84.6922L734.504 90.8765ZM690.519 128.804L676.929 88.0878L665.977 90.9119L657.22 114.703V121.116L659.569 133.747L657.22 159.612L668.006 152.144L671.423 133.747L672.906 118.277H673.341L681.355 130.315L687.443 151.32L690.519 154.203L693.595 151.32L699.682 130.315L707.696 118.277H708.131L709.614 133.747L713.031 152.144L723.817 159.831L721.468 133.747L723.817 121.116V115.141L715.06 90.9119L704.108 88.0878L690.519 128.804ZM851.29 148.103V130.992L848 130.002L846.246 122.452L839.235 121.778L830.444 116.627L824.971 115.367L819.466 112.148L815.981 108.513H815.476L819.466 103.791L826.64 104.953L834.007 104.331L843.139 110.471L845.336 116.145L848 106.852V101.266L838.033 90.0114L822.084 88.0878L810.726 90.9257L801.504 98.1953L797.556 106.023V112.148L800.477 117.046L802.138 123.167L810.02 124.584L821.223 128.232L826.64 134.726L834.007 141.248L828.652 146.005L823.929 144.606L816.861 146.005L812.594 140.273L806.207 138.59L803.868 132.854L800.477 133.271V141.248L801.572 149.519L809.011 157.791L816.861 160.554H831.644L838.785 156.736L851.29 148.103ZM861.783 123.486L863.397 133.37L861.783 141.185L863.397 159.647L870.839 153.526L878.346 150.353L879.894 140.632L885.887 132.335L894.271 143.884L907.875 153.526L923.057 159.647V150.353L905.184 127.442L898.756 120.302L909.37 103.508L921.179 89.9224V85.7099L895.854 95.2435L889.856 108.276L880.887 115.051L877.299 104.758V94.1925L859.959 83.9264V88.0878L864.742 100.856L861.783 123.486ZM928.479 155.874L935.258 159.647L943.561 155.874L944.945 139.657L943.561 123.486L944.945 108.276L941.189 96.2139L935.258 88.0878L930.343 96.2139L926.834 108.209L928.479 123.419L926.834 139.601L928.479 155.874ZM950.006 103.689L964.233 100.13L970.071 103.689V117.678L972.875 131.668V155.262L978.996 159.647L985.117 155.262V131.668L987.921 117.678V103.689L993.759 100.13L1007.99 103.689V98.368L999.86 91.7604L989.861 88.0878L978.996 89.9089L968.13 88.0878L958.132 91.7604L950.006 98.2674V103.689ZM1066.78 148.103V138.59L1063.49 130.002L1061.74 122.452L1054.73 121.778L1045.93 116.627L1040.46 115.367L1034.96 112.148L1031.47 108.513H1030.97L1034.96 103.791L1042.13 104.953L1049.5 104.331L1058.63 110.471L1060.83 116.145L1063.49 106.852V101.423L1053.52 90.0114L1037.58 88.0878L1026.22 90.9257L1016.99 98.1953L1013.05 106.259V112.148L1015.97 117.046L1017.63 123.167L1025.51 124.584L1036.71 128.232L1042.13 134.726L1049.5 141.248L1044.14 146.005L1039.42 144.606L1032.35 146.005L1028.08 140.273L1021.7 138.59L1019.36 132.854L1015.97 133.503V141.248L1017.06 149.519L1024.5 157.791L1032.35 160.554H1047.13L1054.28 156.736L1066.78 148.103Z" stroke="#B3DCEE" stroke-width="18" stroke-linejoin="bevel" mask="url(#path-96-outside-1_410_2)"/>
<path fill-rule="evenodd" clip-rule="evenodd" d="M863.397 159.647L861.783 141.185L863.397 133.37L861.783 123.486L864.742 100.856L859.959 88.0877V83.9263L877.299 94.1924V104.758L880.887 115.051L889.856 108.276L895.854 95.2434L921.179 85.7098V89.9223L909.37 103.508L898.756 120.302L905.184 127.441L923.056 150.353V159.647L907.875 153.526L894.271 143.884L885.887 132.335L879.894 140.632L878.345 150.353L870.838 153.526L863.397 159.647ZM935.258 88.0877L941.189 96.2138L944.945 108.276L943.561 123.486L944.945 139.657L943.561 155.874L935.258 159.647L928.479 155.874L926.834 139.601L928.479 123.419L926.834 108.209L930.343 96.2138L935.258 88.0877ZM743.554 152.144L731.139 159.647V150.314L743.554 127.917L745.072 108.493L754.364 93.6247L762.749 88.0877V108.493L754.364 115.342L753.152 130.318L751.501 134.072L754.364 133.441H762.749V141.652H754.364L747.172 143.784L743.554 152.144ZM781.945 152.144L794.36 159.647V150.71L781.945 127.917L780.427 108.493L771.135 93.6247L762.75 88.0877V108.493L771.135 115.342L772.347 130.318L773.998 134.072L770.351 133.441H762.75V141.652H771.135L778.327 143.784L781.945 152.144ZM972.875 155.262L978.996 159.647L985.116 155.262V131.668L987.921 117.678V103.689L993.759 100.13L1007.99 103.689V98.3679L999.859 91.7603L989.861 88.0877L978.996 89.9088L968.13 88.0877L958.132 91.7603L950.006 98.2673V103.689L964.232 100.13L970.071 103.689V117.678L972.875 131.668V155.262ZM834.007 104.331L843.139 110.471L845.336 116.145L848 106.851V101.266L838.033 90.0113L822.084 88.0877L810.725 90.9257L801.504 98.1952L797.556 106.022V112.148L800.476 117.046L802.138 123.167L810.02 124.583L821.222 128.232L826.64 134.725L834.007 141.248L828.652 146.005L823.929 144.606L816.861 146.005L812.594 140.273L806.207 138.59L803.868 132.854L800.476 133.271V141.248L801.572 149.519L809.011 157.791L816.861 160.554H831.644L838.785 156.736L851.29 148.102V130.992L848 130.002L846.246 122.452L839.235 121.778L830.443 116.626L824.971 115.367L819.466 112.148L815.981 108.512H815.475L819.466 103.791L826.64 104.953L834.007 104.331ZM1058.63 110.471L1049.5 104.331L1042.13 104.953L1034.96 103.791L1030.97 108.512H1031.47L1034.96 112.148L1040.46 115.367L1045.93 116.626L1054.73 121.778L1061.74 122.452L1063.49 130.002L1066.78 138.59V148.102L1054.28 156.736L1047.13 160.554H1032.35L1024.5 157.791L1017.06 149.519L1015.97 141.248V133.503L1019.36 132.854L1021.7 138.59L1028.08 140.273L1032.35 146.005L1039.42 144.606L1044.14 146.005L1049.5 141.248L1042.13 134.725L1036.71 128.232L1025.51 124.583L1017.63 123.167L1015.97 117.046L1013.05 112.148V106.259L1016.99 98.1952L1026.22 90.9257L1037.57 88.0877L1053.52 90.0113L1063.49 101.423V106.851L1060.83 116.145L1058.63 110.471ZM676.929 88.0877L690.518 128.804L704.108 88.0877L715.06 90.9118L723.817 115.141V121.116L721.468 133.747L723.817 159.831L713.031 152.144L709.614 133.747L708.131 118.277H707.696L699.682 130.314L693.594 151.32L690.518 154.203L687.442 151.32L681.355 130.314L673.341 118.277H672.906L671.423 133.747L668.006 152.144L657.219 159.612L659.569 133.747L657.219 121.116V114.703L665.977 90.9118L676.929 88.0877Z" fill="#D9D9D9"/>
<path fill-rule="evenodd" clip-rule="evenodd" d="M834.007 98.9335L845.336 109.936L848 101.281L845.589 93.2187L838.033 85.5967L822.084 83.8052L801.504 93.2187L797.556 106.213L802.138 116.476L810.02 117.795L821.222 121.193L826.64 127.241L834.007 133.316L828.652 137.745L823.929 136.443L816.861 137.745L806.207 130.84L803.868 125.498L800.476 133.316L801.572 141.019L816.861 151.296H831.644L851.29 139.699V130.84L848 122.841L839.235 115.182L824.971 109.212L815.981 102.828H815.475L819.466 98.4303L834.007 98.9335ZM743.554 143.463L731.139 150.451L743.554 120.9L745.072 102.81L754.364 88.962L762.749 83.8052V102.81L754.364 109.188L753.152 123.136L751.501 126.632L754.364 127.021L762.749 126.045V133.692H754.364L747.172 135.677L743.554 143.463ZM781.945 143.463L794.36 150.451L781.945 120.9L780.427 102.81L771.135 88.962L762.749 83.8052V102.81L771.135 109.188L772.347 123.136L773.998 126.632L771.135 127.021L762.749 126.045V133.692H771.135L778.327 135.677L781.945 143.463ZM972.875 146.367L978.996 150.451L985.116 146.367V124.393L987.921 111.364V98.3349L993.759 95.0208L1007.99 98.3349L1003.08 94.004L999.859 87.2256L989.861 83.8052L978.996 85.5012L968.13 83.8052L958.132 87.2256L954.912 94.004L950.006 98.3349L964.232 95.0208L970.071 98.3349V111.364L972.875 124.393V146.367ZM863.397 150.451L861.783 133.257L863.397 125.015L861.783 116.773L864.742 95.6964L859.959 83.8052L870.838 85.1114L877.299 89.4907V99.3305L880.887 108.917L889.856 102.607L895.854 90.4696L906.23 85.5138H921.179L909.37 98.1664L898.756 113.808L905.184 120.457L909.37 131.834L923.056 150.451L907.875 144.751L894.271 135.77L885.887 125.015L879.894 132.742L878.345 141.796L870.838 144.751L863.397 150.451ZM935.258 83.8052L941.189 91.3733L944.945 102.607L943.561 116.773L944.945 131.834L943.561 146.937L935.258 150.451L928.479 146.937L926.834 131.782L928.479 116.711L926.834 102.545L930.343 91.3733L935.258 83.8052ZM1058.63 104.652L1049.5 98.9335L1042.13 99.5126L1034.96 98.4303L1030.97 102.828H1031.47L1034.96 106.213L1040.46 109.212L1045.93 110.384L1054.73 115.182L1061.74 115.81L1063.49 122.841L1066.78 130.84V139.699L1054.28 147.74L1047.13 151.296H1032.35L1024.5 148.722L1017.06 141.019L1015.97 133.316L1017.06 129.441L1019.36 125.498L1021.7 130.84L1028.08 132.407L1032.35 137.745L1039.42 136.443L1044.14 137.745L1049.5 133.316L1042.13 127.241L1036.71 121.193L1025.51 117.795L1017.63 116.476L1015.97 110.775L1013.05 106.213L1015.16 99.5126L1016.99 93.2187L1026.22 86.4483L1037.57 83.8052L1053.52 85.5967L1061.08 93.2187L1063.49 101.281L1060.83 109.936L1058.63 104.652ZM676.929 83.8052L690.518 121.726L704.108 83.8052L715.06 86.4354L723.817 114.566L721.468 126.329L722.916 150.451L713.031 143.463L709.614 126.329L708.131 111.921H707.696L699.682 123.133L693.594 142.696L690.518 145.381L687.442 142.696L681.355 123.133L673.341 111.921H672.906L671.423 126.329L668.006 143.463L658.12 150.451L659.569 126.329L657.219 114.566L665.977 86.4354L676.929 83.8052Z" fill="white"/>
<path opacity="0.2" fill-rule="evenodd" clip-rule="evenodd" d="M778.664 100.182L774.674 94.2358L762.75 96.1885V102.81L766.091 105.351L778.664 100.182ZM754.276 110.209L754.364 109.188L762.749 102.81V96.1886L747.881 98.6235L745.072 102.81L744.1 114.392L754.276 110.209ZM744.008 115.488L753.903 114.497L753.152 123.136L751.501 126.632L754.364 127.021L762.749 126.045V133.692H754.364L747.92 135.471L737.221 135.975L743.554 120.9L744.008 115.488ZM722.09 136.689L721.468 126.329L723.817 114.566L722.676 110.898L708.502 115.53L709.614 126.329L711.777 137.175L722.09 136.689ZM695.067 137.964L699.682 123.133L704.085 116.973L690.648 121.364L690.518 121.726L690.416 121.44L681.713 124.284L686.101 138.387L695.067 137.964ZM668.856 139.2L671.142 127.739L659.251 131.625L658.767 139.676L668.856 139.2ZM657.425 115.595L672.728 113.653L672.906 111.921H673.341L674.425 113.437L686.977 111.844L685.878 108.777L657.579 113.412L657.219 114.566L657.425 115.595ZM695.737 107.163L694.397 110.903L721.602 107.45L720.262 103.146L695.737 107.163ZM773.25 134.276L771.135 133.692H762.75V126.045L771.135 127.021L773.998 126.632L772.347 123.136L771.444 112.74L781.178 111.765L781.945 120.9L787.286 133.614L773.25 134.276ZM882.708 129.113L862.407 130.07L863.397 125.015L861.783 116.773L863.646 103.503L878.311 102.034L880.887 108.917L889.856 102.607L890.755 100.787L908.819 98.9777L898.756 113.808L905.184 120.457L907.931 127.923L888.855 128.823L885.887 125.015L882.708 129.113ZM944.427 126.201L927.355 127.007L928.479 116.711L926.834 102.545L928.576 96.9984L942.6 95.5936L944.945 102.607L943.561 116.773L944.427 126.201ZM985.141 124.281L972.875 124.859V124.393L970.071 111.364V98.3347L964.232 95.0207L950.006 98.3347L954.457 94.4057L1001.05 89.7378L1003.08 94.0039L1007.99 98.3347L993.759 95.0207L987.921 98.3347V111.364L985.141 124.281ZM1046.22 110.542L1025.9 117.913L1025.51 117.795L1017.63 116.475L1015.97 110.775L1013.05 106.213L1015.16 99.5125L1016.99 93.2186L1025 87.3385L1048.28 85.0071L1053.52 85.5966L1061.08 93.2186L1063.49 101.281L1062.45 104.657L1059.13 105.861L1058.63 104.652L1049.5 98.9334L1042.13 99.5125L1034.96 98.4302L1030.97 102.828H1031.47L1034.96 106.213L1040.46 109.212L1045.93 110.384L1046.22 110.542ZM799.909 109.888L800.476 110.775L802.138 116.475L810.02 117.795L821.222 121.193L826.64 127.241L831.821 131.513L851.191 130.599L848 122.841L846.246 115.81L839.235 115.182L830.443 110.384L824.971 109.212L822.127 107.662L799.909 109.888ZM843.501 105.521L846.797 105.191L845.336 109.936L843.501 105.521ZM812.603 132.419L800.569 132.987L801.572 129.441L803.868 125.498L806.207 130.84L812.594 132.407L812.603 132.419Z" fill="#C0AC77"/>
<defs>
<linearGradient id="paint0_linear_410_2" x1="864" y1="0" x2="864" y2="854" gradientUnits="userSpaceOnUse">
<stop stop-color="#ADDAED"/>
<stop offset="1" stop-color="white"/>
</linearGradient>
<linearGradient id="paint1_linear_410_2" x1="1256" y1="432" x2="1042" y2="711" gradientUnits="userSpaceOnUse">
<stop stop-color="#C1C8E1"/>
<stop offset="0.941711" stop-color="#C1D9E1" stop-opacity="0"/>
</linearGradient>
<linearGradient id="paint2_linear_410_2" x1="1333.75" y1="538.5" x2="1333.75" y2="673" gradientUnits="userSpaceOnUse">
<stop stop-color="#BED8E2"/>
<stop offset="1" stop-color="#A5BFCA"/>
</linearGradient>
<linearGradient id="paint3_linear_410_2" x1="1324" y1="549.5" x2="1324" y2="661.5" gradientUnits="userSpaceOnUse">
<stop stop-color="#AABFC8"/>
<stop offset="1" stop-color="#AAC3CE"/>
</linearGradient>
<linearGradient id="paint4_linear_410_2" x1="1470" y1="580" x2="1470" y2="694.5" gradientUnits="userSpaceOnUse">
<stop stop-color="#ADC7D2"/>
<stop offset="1" stop-color="#B2C8D2"/>
</linearGradient>
<linearGradient id="paint5_linear_410_2" x1="1462" y1="596.5" x2="1462" y2="677.5" gradientUnits="userSpaceOnUse">
<stop stop-color="#99ABB2"/>
<stop offset="1" stop-color="#AAC2CD"/>
</linearGradient>
<linearGradient id="paint6_linear_410_2" x1="1374.5" y1="434" x2="1374.5" y2="598" gradientUnits="userSpaceOnUse">
<stop stop-color="#F0EADF"/>
<stop offset="1" stop-color="#DBEAF1" stop-opacity="0.35"/>
</linearGradient>
<linearGradient id="paint7_linear_410_2" x1="1374.5" y1="434" x2="1374.5" y2="598" gradientUnits="userSpaceOnUse">
<stop stop-color="#F0EADF"/>
<stop offset="1" stop-color="#DBEAF1" stop-opacity="0.35"/>
</linearGradient>
<linearGradient id="paint8_linear_410_2" x1="1398.75" y1="599.5" x2="1398.75" y2="666.5" gradientUnits="userSpaceOnUse">
<stop stop-color="#EFEBE0"/>
<stop offset="1" stop-color="#EFEBE0" stop-opacity="0.42"/>
</linearGradient>
<linearGradient id="paint9_linear_410_2" x1="391.5" y1="132.875" x2="391.5" y2="355" gradientUnits="userSpaceOnUse">
<stop stop-color="white"/>
<stop offset="1" stop-color="white" stop-opacity="0"/>
</linearGradient>
<linearGradient id="paint10_linear_410_2" x1="1203.33" y1="96.2906" x2="1163.5" y2="152" gradientUnits="userSpaceOnUse">
<stop stop-color="#E3E3E3"/>
<stop offset="1" stop-color="#EAE4E4" stop-opacity="0"/>
</linearGradient>
<radialGradient id="paint11_radial_410_2" cx="0" cy="0" r="1" gradientUnits="userSpaceOnUse" gradientTransform="translate(1226 99.5) rotate(65.2249) scale(35.7946 28.0051)">
<stop stop-color="#565656"/>
<stop offset="1" stop-color="#868686" stop-opacity="0.42"/>
</radialGradient>
<radialGradient id="paint12_radial_410_2" cx="0" cy="0" r="1" gradientUnits="userSpaceOnUse" gradientTransform="translate(1238 88.9997) rotate(63.2272) scale(50)">
<stop stop-color="white"/>
<stop offset="1" stop-color="white" stop-opacity="0"/>
</radialGradient>
<linearGradient id="paint13_linear_410_2" x1="1404.5" y1="287.432" x2="1404.5" y2="412.5" gradientUnits="userSpaceOnUse">
<stop stop-color="white"/>
<stop offset="1" stop-color="white" stop-opacity="0"/>
</linearGradient>
<radialGradient id="paint14_radial_410_2" cx="0" cy="0" r="1" gradientUnits="userSpaceOnUse" gradientTransform="translate(1238.5 110.5) rotate(142.815) scale(18.2003 11.7785)">
<stop offset="0.46246" stop-color="white"/>
<stop offset="1" stop-color="white" stop-opacity="0"/>
</radialGradient>
<clipPath id="clip0_410_2">
<rect width="1728" height="854" fill="white"/>
</clipPath>
</defs>
</svg>
